<svg viewBox="0 0 24 24" xmlns="http://www.w3.org/2000/svg" xmlns:xlink="http://www.w3.org/1999/xlink" width="24.000000" height="24.000000" fill="none">
	<rect id="material-symbols:thumb-up" width="24.000000" height="24.000000" x="0.000000" y="0.000000" fill="rgb(255,255,255)" fill-opacity="0" />
	<path id="Vector" d="M18 21L8 21L8 8L15 1L16.25 2.25C16.3667 2.36667 16.4627 2.525 16.538 2.725C16.6133 2.925 16.6507 3.11667 16.65 3.3L16.65 3.65L15.55 8L21 8C21.5333 8 22 8.2 22.4 8.6C22.8 9 23 9.46667 23 10L23 12C23 12.1167 22.9877 12.2417 22.963 12.375C22.9383 12.5083 22.9007 12.6333 22.85 12.75L19.85 19.8C19.7 20.1333 19.45 20.4167 19.1 20.65C18.75 20.8833 18.3833 21 18 21ZM6 8L6 21L2 21L2 8L6 8Z" fill="rgb(247.988,251.746,255)" fill-rule="nonzero" />
</svg>
