<svg width="22" height="24" viewBox="0 0 22 24" fill="none" xmlns="http://www.w3.org/2000/svg">
<g clip-path="url(#clip0_6_128)" filter="url(#filter0_d_6_128)">
<path d="M7.2 6.4C6.35131 6.4 5.53737 6.06286 4.93726 5.46274C4.33714 4.86263 4 4.04869 4 3.2C4 2.35131 4.33714 1.53737 4.93726 0.937258C5.53737 0.337142 6.35131 0 7.2 0L14.6667 0C15.5154 0 16.3293 0.337142 16.9294 0.937258C17.5295 1.53737 17.8667 2.35131 17.8667 3.2C17.8667 4.04869 17.5295 4.86263 16.9294 5.46274C16.3293 6.06286 15.5154 6.4 14.6667 6.4H12.5333V3.73333C12.5333 3.02609 12.2524 2.34781 11.7523 1.84772C11.2522 1.34762 10.5739 1.06667 9.86667 1.06667C9.15942 1.06667 8.48115 1.34762 7.98105 1.84772C7.48095 2.34781 7.2 3.02609 7.2 3.73333V6.4Z" fill="white"/>
<path d="M9.86663 2.13333C9.44229 2.13333 9.03532 2.3019 8.73526 2.60196C8.4352 2.90202 8.26663 3.30899 8.26663 3.73333V8.58667C7.66431 8.70962 7.12296 9.0369 6.7342 9.51312C6.34545 9.98934 6.13318 10.5853 6.1333 11.2C6.1333 12.473 6.63901 13.6939 7.53919 14.5941C8.43936 15.4943 9.66026 16 10.9333 16H11.4666C12.8811 16 14.2377 15.4381 15.2379 14.4379C16.2381 13.4377 16.8 12.0812 16.8 10.6667V9.7568C16.8 9.14942 16.5587 8.56692 16.1292 8.13743C15.6997 7.70795 15.1172 7.46667 14.5098 7.46667H11.4666V3.73333C11.4666 3.30899 11.2981 2.90202 10.998 2.60196C10.6979 2.3019 10.291 2.13333 9.86663 2.13333Z" fill="white"/>
</g>
<defs>
<filter id="filter0_d_6_128" x="-1.06665" y="0" width="24" height="24" filterUnits="userSpaceOnUse" color-interpolation-filters="sRGB">
<feFlood flood-opacity="0" result="BackgroundImageFix"/>
<feColorMatrix in="SourceAlpha" type="matrix" values="0 0 0 0 0 0 0 0 0 0 0 0 0 0 0 0 0 0 127 0" result="hardAlpha"/>
<feOffset dy="4"/>
<feGaussianBlur stdDeviation="2"/>
<feComposite in2="hardAlpha" operator="out"/>
<feColorMatrix type="matrix" values="0 0 0 0 0 0 0 0 0 0 0 0 0 0 0 0 0 0 0.25 0"/>
<feBlend mode="normal" in2="BackgroundImageFix" result="effect1_dropShadow_6_128"/>
<feBlend mode="normal" in="SourceGraphic" in2="effect1_dropShadow_6_128" result="shape"/>
</filter>
<clipPath id="clip0_6_128">
<rect width="16" height="16" fill="white" transform="translate(2.93335)"/>
</clipPath>
</defs>
</svg>
